<svg xmlns="http://www.w3.org/2000/svg" xmlns:xlink="http://www.w3.org/1999/xlink" width="16" height="16" viewBox="0 0 16 16">
  <defs>
    <clipPath id="clip-unit-field-icon-mask">
      <rect width="16" height="16"/>
    </clipPath>
  </defs>
  <g id="unit-field-icon-mask" clip-path="url(#clip-unit-field-icon-mask)">
    <path d="M15.881-61.187l-1.989-3.387A.8.8,0,0,0,12.8-64.86l-1.725.977,1.492,2.542a.194.194,0,0,1-.072.267l-.345.195a.2.2,0,0,1-.272-.072L10.39-63.491l-1.38.782.7,1.185a.194.194,0,0,1-.072.267l-.345.195a.2.2,0,0,1-.272-.072l-.7-1.182-1.38.782,1.495,2.542a.2.2,0,0,1-.072.267l-.345.195a.2.2,0,0,1-.272-.072L6.254-61.144l-1.38.782.7,1.185a.194.194,0,0,1-.072.267l-.345.195a.2.2,0,0,1-.272-.072l-.7-1.187-1.38.782L4.3-56.65a.2.2,0,0,1-.072.267l-.345.195a.2.2,0,0,1-.272-.072L2.115-58.795.39-57.817A.777.777,0,0,0,.1-56.748l1.989,3.389a.8.8,0,0,0,1.087.287l12.416-7.046A.776.776,0,0,0,15.881-61.187Z" transform="translate(0.009 66.965)" fill="currentColor"/>
  </g>
</svg>
