<?xml version="1.0" encoding="utf-8"?>
<svg xmlns="http://www.w3.org/2000/svg" width="128" height="128" viewBox="0 0 128 128">
    <g transform="translate(197 -196)">
        <path d="M64,0A64,64,0,1,1,0,64,64,64,0,0,1,64,0Z" transform="translate(-197 196)" fill="#990080"/>
        <path d="M95.6-42.23,83.632-62.607a4.84,4.84,0,0,0-6.542-1.729l-10.377,5.88,8.978,15.295a1.167,1.167,0,0,1-.436,1.609L73.18-40.38a1.2,1.2,0,0,1-1.639-.436L62.562-56.1l-8.3,4.707,4.2,7.129a1.167,1.167,0,0,1-.436,1.609l-2.075,1.173a1.2,1.2,0,0,1-1.639-.436l-4.2-7.113-8.3,4.707L50.8-29.025a1.171,1.171,0,0,1-.436,1.609L48.29-26.243a1.2,1.2,0,0,1-1.639-.436L37.673-41.974l-8.3,4.707,4.2,7.128a1.167,1.167,0,0,1-.436,1.609l-2.075,1.173a1.2,1.2,0,0,1-1.639-.436l-4.2-7.144-8.3,4.707L25.9-14.934a1.171,1.171,0,0,1-.436,1.609l-2.075,1.173a1.2,1.2,0,0,1-1.639-.436L12.768-27.837,2.391-21.957A4.677,4.677,0,0,0,.632-15.52L12.6,4.873A4.84,4.84,0,0,0,19.145,6.6l74.714-42.4A4.669,4.669,0,0,0,95.6-42.23Z" transform="translate(-181 289)" fill="#fff"/>
    </g>
</svg>
